@startuml

skinparam svgLinkTarget _parent
skinparam linetype ortho
set namespaceSeparator none
class "<b><size:14>Player</b>\n<size:10>soen6441riskgame.models" as soen6441riskgame.models.Player  [[../../soen6441riskgame/models/Player.html{soen6441riskgame.models.Player}]] {
{static} -int MAX_NUMBER_OF_CARD_TO_FORCE_EXCHANGE
{static} -int LEAST_NUMBER_OF_ARMIES_INIT_IN_TURN
{static} -int INIT_ARMY_DIVIDE_FRACTION
-String name
-int unplacedArmies
-boolean isPlaying
-Player nextPlayer
-String nextPlayerName
-Player previousPlayer
-String previousPlayerName
-GamePhase currentPhase
-ArrayList<Card> holdingCards
-ArrayList<String> currentPhaseActions
-boolean isPlayerBeAwardCard
-Strategy strategy
+Player(String name)
+Player(Player serializedPlayer)
+Strategy getStrategy()
+void setStrategy(Strategy strategy)
+void linkNextAndPrevious(List<Player> players)
+void reconstruct()
+void setPlayerBeAwardCard(boolean isPlayerAwardCard)
+GamePhase getCurrentPhase()
+void setCurrentPhase(GamePhase newPhase)
+ArrayList<Card> getHoldingCards()
+Card getHoldingCard(int position)
+void exchangeCardSets(List<CardSet> cardSets)
+void removeExchangedCards()
+ArrayList<String> getCurrentPhaseActions()
+void addCurrentPhaseAction(String action)
+Player getPreviousPlayer()
+void setPreviousPlayer(Player previousPlayer)
+Player getNextPlayer()
+void setNextPlayer(Player nextPlayer)
+String getName()
+int getTotalArmies()
+ArrayList<Continent> getConqueredContinents()
+ArrayList<Country> getConqueredCountries()
+boolean isPlaying()
+void setPlaying(boolean isPlaying)
+int getUnplacedArmies()
+void setUnplacedArmies(int unplacedArmies)
+void calculateReinforcementArmies()
+void reinforce(Country country,int numberOfArmies)
+void fortify(Country fromCountry,Country toCountry,int numberOfArmies)
+void attack(Country attackingCountry,Country defendingCountry,int attackerNumDice,int defenderNumDice)
+void attackMove(Country fromCountry,Country toCountry,int numberOfArmies)
+ArrayList<CardSet> buildValidCardSets()
+void setEndOfGamePhase()
+boolean isGameEnded()
+boolean furtherAttackPossible()
-boolean isPlayerBeAwardCard()
-boolean isChangePhaseAllowed(GamePhase newPhase)
-void getACardFromDeck()
-int getArmiesFromAllConqueredCountries()
-int getArmiesFromConqueredContinents()
-void printDiceValues(int attackerNumDice,int defenderNumDice,int attackerDiceValues,int defenderDiceValues)
-void lostOneArmy(Country lostArmyCountry,Player lostArmyPlayer)
}


class "<b><size:14>GameController</b>\n<size:10>soen6441riskgame.controllers" as soen6441riskgame.controllers.GameController  [[../../soen6441riskgame/controllers/GameController.html{soen6441riskgame.controllers.GameController}]] #white {
}

hide soen6441riskgame.controllers.GameController fields
hide soen6441riskgame.controllers.GameController methods

soen6441riskgame.controllers.GameController ..> soen6441riskgame.models.Player


class "<b><size:14>Card</b>\n<size:10>soen6441riskgame.models" as soen6441riskgame.models.Card  [[../../soen6441riskgame/models/Card.html{soen6441riskgame.models.Card}]] {
}

hide soen6441riskgame.models.Card fields
hide soen6441riskgame.models.Card methods

soen6441riskgame.models.Card -->  "holdingPlayer" soen6441riskgame.models.Player

class "<b><size:14>Continent</b>\n<size:10>soen6441riskgame.models" as soen6441riskgame.models.Continent  [[../../soen6441riskgame/models/Continent.html{soen6441riskgame.models.Continent}]] {
}

hide soen6441riskgame.models.Continent fields
hide soen6441riskgame.models.Continent methods

soen6441riskgame.models.Continent ..> soen6441riskgame.models.Player

class "<b><size:14>Country</b>\n<size:10>soen6441riskgame.models" as soen6441riskgame.models.Country  [[../../soen6441riskgame/models/Country.html{soen6441riskgame.models.Country}]] {
}

hide soen6441riskgame.models.Country fields
hide soen6441riskgame.models.Country methods

soen6441riskgame.models.Country -->  "conquerer" soen6441riskgame.models.Player

soen6441riskgame.models.Player -->  "nextPlayer" soen6441riskgame.models.Player

soen6441riskgame.models.Player -->  "previousPlayer" soen6441riskgame.models.Player

enum "<b><size:14>GamePhase</b>\n<size:10>soen6441riskgame.enums" as soen6441riskgame.enums.GamePhase  [[../../soen6441riskgame/enums/GamePhase.html{soen6441riskgame.enums.GamePhase}]] #white {
}

hide soen6441riskgame.enums.GamePhase fields
hide soen6441riskgame.enums.GamePhase methods

soen6441riskgame.models.Player -->  "currentPhase" soen6441riskgame.enums.GamePhase


soen6441riskgame.models.Player ..> soen6441riskgame.models.Card


interface "<b><size:14>Strategy</b>\n<size:10>soen6441riskgame.models.strategies" as soen6441riskgame.models.strategies.Strategy  [[../../soen6441riskgame/models/strategies/Strategy.html{soen6441riskgame.models.strategies.Strategy}]] #white {
}

hide soen6441riskgame.models.strategies.Strategy fields
hide soen6441riskgame.models.strategies.Strategy methods

soen6441riskgame.models.Player -->  "strategy" soen6441riskgame.models.strategies.Strategy




class "<b><size:14>CardSet</b>\n<size:10>soen6441riskgame.models" as soen6441riskgame.models.CardSet  [[../../soen6441riskgame/models/CardSet.html{soen6441riskgame.models.CardSet}]] {
}

hide soen6441riskgame.models.CardSet fields
hide soen6441riskgame.models.CardSet methods

soen6441riskgame.models.Player ..> soen6441riskgame.models.CardSet


soen6441riskgame.models.Player ..> soen6441riskgame.models.Continent


soen6441riskgame.models.Player ..> soen6441riskgame.models.Country


class "<b><size:14>SerializableGame</b>\n<size:10>soen6441riskgame.models.serializers" as soen6441riskgame.models.serializers.SerializableGame  [[../../soen6441riskgame/models/serializers/SerializableGame.html{soen6441riskgame.models.serializers.SerializableGame}]] #white {
}

hide soen6441riskgame.models.serializers.SerializableGame fields
hide soen6441riskgame.models.serializers.SerializableGame methods

soen6441riskgame.models.serializers.SerializableGame -->  "players *" soen6441riskgame.models.Player

class "<b><size:14>SerializableGame.Builder</b>\n<size:10>soen6441riskgame.models.serializers" as soen6441riskgame.models.serializers.SerializableGame.Builder  [[../../soen6441riskgame/models/serializers/SerializableGame.Builder.html{soen6441riskgame.models.serializers.SerializableGame.Builder}]] #white {
}

hide soen6441riskgame.models.serializers.SerializableGame.Builder fields
hide soen6441riskgame.models.serializers.SerializableGame.Builder methods

soen6441riskgame.models.serializers.SerializableGame.Builder -->  "players *" soen6441riskgame.models.Player

class "<b><size:14>AggressiveStrategy</b>\n<size:10>soen6441riskgame.models.strategies" as soen6441riskgame.models.strategies.AggressiveStrategy  [[../../soen6441riskgame/models/strategies/AggressiveStrategy.html{soen6441riskgame.models.strategies.AggressiveStrategy}]] #white {
}

hide soen6441riskgame.models.strategies.AggressiveStrategy fields
hide soen6441riskgame.models.strategies.AggressiveStrategy methods

soen6441riskgame.models.strategies.AggressiveStrategy ..> soen6441riskgame.models.Player

class "<b><size:14>BenevolentStrategy</b>\n<size:10>soen6441riskgame.models.strategies" as soen6441riskgame.models.strategies.BenevolentStrategy  [[../../soen6441riskgame/models/strategies/BenevolentStrategy.html{soen6441riskgame.models.strategies.BenevolentStrategy}]] #white {
}

hide soen6441riskgame.models.strategies.BenevolentStrategy fields
hide soen6441riskgame.models.strategies.BenevolentStrategy methods

soen6441riskgame.models.strategies.BenevolentStrategy ..> soen6441riskgame.models.Player

class "<b><size:14>CheaterStrategy</b>\n<size:10>soen6441riskgame.models.strategies" as soen6441riskgame.models.strategies.CheaterStrategy  [[../../soen6441riskgame/models/strategies/CheaterStrategy.html{soen6441riskgame.models.strategies.CheaterStrategy}]] #white {
}

hide soen6441riskgame.models.strategies.CheaterStrategy fields
hide soen6441riskgame.models.strategies.CheaterStrategy methods

soen6441riskgame.models.strategies.CheaterStrategy ..> soen6441riskgame.models.Player

class "<b><size:14>HumanStrategy</b>\n<size:10>soen6441riskgame.models.strategies" as soen6441riskgame.models.strategies.HumanStrategy  [[../../soen6441riskgame/models/strategies/HumanStrategy.html{soen6441riskgame.models.strategies.HumanStrategy}]] #white {
}

hide soen6441riskgame.models.strategies.HumanStrategy fields
hide soen6441riskgame.models.strategies.HumanStrategy methods

soen6441riskgame.models.strategies.HumanStrategy ..> soen6441riskgame.models.Player

class "<b><size:14>RandomStrategy</b>\n<size:10>soen6441riskgame.models.strategies" as soen6441riskgame.models.strategies.RandomStrategy  [[../../soen6441riskgame/models/strategies/RandomStrategy.html{soen6441riskgame.models.strategies.RandomStrategy}]] #white {
}

hide soen6441riskgame.models.strategies.RandomStrategy fields
hide soen6441riskgame.models.strategies.RandomStrategy methods

soen6441riskgame.models.strategies.RandomStrategy ..> soen6441riskgame.models.Player

soen6441riskgame.models.strategies.Strategy ..> soen6441riskgame.models.Player

class "<b><size:14>GameBoardPlayer</b>\n<size:10>soen6441riskgame.singleton" as soen6441riskgame.singleton.GameBoardPlayer  [[../../soen6441riskgame/singleton/GameBoardPlayer.html{soen6441riskgame.singleton.GameBoardPlayer}]] #white {
}

hide soen6441riskgame.singleton.GameBoardPlayer fields
hide soen6441riskgame.singleton.GameBoardPlayer methods

soen6441riskgame.singleton.GameBoardPlayer ..> soen6441riskgame.models.Player


@enduml
